<?xml version="1.0" standalone="no"?>
<!DOCTYPE svg PUBLIC "-//W3C//DTD SVG 20010904//EN"
 "http://www.w3.org/TR/2001/REC-SVG-20010904/DTD/svg10.dtd">
<svg version="1.0" xmlns="http://www.w3.org/2000/svg"
 width="247.000000pt" height="247.000000pt" viewBox="0 0 247.000000 247.000000"
 preserveAspectRatio="xMidYMid meet">
<metadata>
Created by potrace 1.14, written by Peter Selinger 2001-2017
</metadata>
<g transform="translate(0.000000,247.000000) scale(0.100000,-0.100000)"
fill="#000000" stroke="none">
<path d="M94 1802 c-33 -22 -34 -83 -1 -104 40 -25 97 6 97 54 0 44 -60 75
-96 50z"/>
<path d="M1705 1424 c-88 -191 -199 -431 -246 -533 -54 -118 -82 -188 -75
-192 6 -3 24 -6 41 -5 29 1 32 7 145 256 64 140 127 280 141 310 14 30 61 135
104 232 44 98 83 178 86 178 3 0 55 -107 114 -237 59 -131 121 -266 136 -300
30 -65 44 -96 143 -313 l57 -126 39 0 c22 0 40 3 40 7 0 4 -19 47 -41 96 -79
169 -166 357 -203 438 -15 33 -76 166 -135 295 l-108 235 -40 3 -39 3 -159
-347z"/>
<path d="M92 1096 l3 -401 25 -1 c14 -1 30 0 36 3 9 3 11 110 10 401 l-1 396
-38 1 -37 1 2 -400z"/>
<path d="M495 1491 c-8 -8 -6 -791 3 -792 4 0 15 -2 26 -4 43 -8 44 -5 44 238
1 260 3 280 37 347 81 160 331 204 454 79 64 -66 71 -104 71 -406 l0 -259 38
1 37 1 2 244 c3 275 -5 343 -48 419 -57 99 -152 143 -298 137 -67 -3 -99 -9
-141 -29 -51 -24 -140 -99 -140 -119 0 -4 -4 -8 -8 -8 -5 0 -8 31 -7 70 1 38
-1 73 -4 77 -6 9 -59 12 -66 4z"/>
</g>
</svg>
